<svg width="25" height="26" viewBox="0 0 25 26" fill="none" xmlns="http://www.w3.org/2000/svg">
<g id="envelope-square">
<path id="Vector" d="M21.0938 2.06348H3.90625C2.61182 2.06348 1.5625 3.11279 1.5625 4.40723V21.5947C1.5625 22.8892 2.61182 23.9385 3.90625 23.9385H21.0938C22.3882 23.9385 23.4375 22.8892 23.4375 21.5947V4.40723C23.4375 3.11279 22.3882 2.06348 21.0938 2.06348ZM10.2596 13.299C5.83149 10.0853 5.87661 10.0772 4.6875 9.15171V7.92285C4.6875 7.27563 5.21216 6.75098 5.85938 6.75098H19.1406C19.7878 6.75098 20.3125 7.27563 20.3125 7.92285V9.15171C19.1225 10.0779 19.1683 10.0855 14.7404 13.2991C14.2277 13.6729 13.2076 14.5745 12.5 14.5634C11.7918 14.5741 10.7731 13.6734 10.2596 13.299ZM20.3125 11.1345V18.0791C20.3125 18.7263 19.7878 19.251 19.1406 19.251H5.85938C5.21216 19.251 4.6875 18.7263 4.6875 18.0791V11.1345C5.36904 11.6616 6.31489 12.3667 9.34097 14.5629C10.0325 15.0679 11.1952 16.1325 12.4999 16.1259C13.8127 16.1325 14.9919 15.0497 15.66 14.5622C18.6853 12.3667 19.631 11.6615 20.3125 11.1345Z" fill="#A4A1AA"/>
</g>
</svg>
