<svg width="25" height="26" viewBox="0 0 25 26" fill="none" xmlns="http://www.w3.org/2000/svg">
<g id="facebook-square">
<path id="Vector" d="M21.0938 2.06348H3.90625C3.28465 2.06348 2.68851 2.31041 2.24897 2.74995C1.80943 3.18948 1.5625 3.78563 1.5625 4.40723L1.5625 21.5947C1.5625 22.2163 1.80943 22.8125 2.24897 23.252C2.68851 23.6915 3.28465 23.9385 3.90625 23.9385H10.6079V16.5015H7.53174V13.001H10.6079V10.333C10.6079 7.29834 12.4146 5.62207 15.1816 5.62207C16.5068 5.62207 17.8926 5.8584 17.8926 5.8584V8.83691H16.3657C14.8613 8.83691 14.3921 9.77051 14.3921 10.728V13.001H17.7505L17.2134 16.5015H14.3921V23.9385H21.0938C21.7154 23.9385 22.3115 23.6915 22.751 23.252C23.1906 22.8125 23.4375 22.2163 23.4375 21.5947V4.40723C23.4375 3.78563 23.1906 3.18948 22.751 2.74995C22.3115 2.31041 21.7154 2.06348 21.0938 2.06348Z" fill="#A4A1AA"/>
</g>
</svg>
