<svg width="25" height="26" viewBox="0 0 25 26" fill="none" xmlns="http://www.w3.org/2000/svg">
<g id="instagram">
<path id="Vector" d="M12.5046 7.3855C9.39917 7.3855 6.89429 9.89038 6.89429 12.9958C6.89429 16.1013 9.39917 18.6062 12.5046 18.6062C15.6101 18.6062 18.115 16.1013 18.115 12.9958C18.115 9.89038 15.6101 7.3855 12.5046 7.3855ZM12.5046 16.6433C10.4978 16.6433 8.85718 15.0076 8.85718 12.9958C8.85718 10.9841 10.4929 9.34839 12.5046 9.34839C14.5164 9.34839 16.1521 10.9841 16.1521 12.9958C16.1521 15.0076 14.5115 16.6433 12.5046 16.6433ZM19.6531 7.15601C19.6531 7.88354 19.0671 8.4646 18.3445 8.4646C17.6169 8.4646 17.0359 7.87866 17.0359 7.15601C17.0359 6.43335 17.6218 5.84741 18.3445 5.84741C19.0671 5.84741 19.6531 6.43335 19.6531 7.15601ZM23.3689 8.48413C23.2859 6.7312 22.8855 5.17847 21.6013 3.89917C20.322 2.61987 18.7693 2.21948 17.0164 2.13159C15.2097 2.02905 9.79468 2.02905 7.98804 2.13159C6.23999 2.2146 4.68726 2.61499 3.40308 3.89429C2.1189 5.17358 1.72339 6.72632 1.6355 8.47925C1.53296 10.2859 1.53296 15.7009 1.6355 17.5076C1.71851 19.2605 2.1189 20.8132 3.40308 22.0925C4.68726 23.3718 6.23511 23.7722 7.98804 23.8601C9.79468 23.9626 15.2097 23.9626 17.0164 23.8601C18.7693 23.7771 20.322 23.3767 21.6013 22.0925C22.8806 20.8132 23.281 19.2605 23.3689 17.5076C23.4714 15.7009 23.4714 10.2908 23.3689 8.48413ZM21.0349 19.446C20.6541 20.4031 19.9167 21.1404 18.9548 21.5261C17.5144 22.0974 14.0964 21.9656 12.5046 21.9656C10.9128 21.9656 7.48999 22.0925 6.05444 21.5261C5.09741 21.1453 4.36011 20.408 3.97437 19.446C3.40308 18.0056 3.53491 14.5876 3.53491 12.9958C3.53491 11.4041 3.40796 7.9812 3.97437 6.54565C4.35522 5.58862 5.09253 4.85132 6.05444 4.46558C7.49487 3.89429 10.9128 4.02612 12.5046 4.02612C14.0964 4.02612 17.5193 3.89917 18.9548 4.46558C19.9119 4.84644 20.6492 5.58374 21.0349 6.54565C21.6062 7.98608 21.4744 11.4041 21.4744 12.9958C21.4744 14.5876 21.6062 18.0105 21.0349 19.446Z" fill="#A4A1AA"/>
</g>
</svg>
