<svg width="100%" height="auto" viewBox="0 0 16 17" fill="none" xmlns="http://www.w3.org/2000/svg">
<g id="Frame 239">
<path id="path11" d="M12.5139 2.60256C11.9062 1.9893 11.1964 1.51393 10.4029 1.18867C8.01491 0.213514 5.29491 0.77204 3.47434 2.60509C2.26668 3.82446 1.6001 5.37688 1.6001 6.98214C1.6001 8.58487 2.26626 10.139 3.47434 11.3571L4.13883 12.0209C5.47242 13.3493 6.62244 14.4962 7.60916 16.0905L7.99298 16.715L8.37932 16.0905C9.36604 14.4962 10.5161 13.3493 11.8473 12.0223L12.5137 11.355C15.0289 8.8194 15.0289 5.13835 12.5139 2.60256ZM9.97916 9.27098C8.88281 10.3779 7.10567 10.3779 6.00911 9.27098C4.91296 8.16782 4.91296 6.37624 6.00911 5.27098C7.10567 4.16782 8.88281 4.16782 9.97916 5.27098C11.073 6.37624 11.073 8.1674 9.97916 9.27098Z" fill="#F48A71"/>
</g>
</svg>
